<svg width="25" height="25" viewBox="0 0 25 25" fill="none" xmlns="http://www.w3.org/2000/svg">
<rect width="25" height="25" rx="12.5" fill="#27B3CB"/>
<path d="M12.5 2.5C11.9805 2.5 11.5625 2.91797 11.5625 3.4375V3.81641C8.38281 4.26953 5.9375 7.00781 5.9375 10.3125V10.8789C5.9375 12.3516 5.54688 13.7969 4.80469 15.0703L3.94922 16.5313C3.82031 16.7578 3.75 17.0117 3.75 17.2734C3.75 18.0898 4.41016 18.75 5.22656 18.75H19.7734C20.5898 18.75 21.25 18.0898 21.25 17.2734C21.25 17.0117 21.1797 16.7539 21.0508 16.5313L20.1953 15.0664C19.4531 13.793 19.0625 12.3477 19.0625 10.875V10.3086C19.0625 7.00391 16.6172 4.26562 13.4375 3.8125V3.43359C13.4375 2.91406 13.0195 2.49609 12.5 2.49609V2.5ZM19.0781 16.875H5.91797L6.42187 16.0117C7.33203 14.4531 7.8125 12.6797 7.8125 10.8789V10.3125C7.8125 7.72266 9.91016 5.625 12.5 5.625C15.0898 5.625 17.1875 7.72266 17.1875 10.3125V10.8789C17.1875 12.6836 17.668 14.4531 18.5742 16.0117L19.0781 16.875ZM9.84766 20.625C10.2344 21.7188 11.2773 22.5 12.5 22.5C13.7227 22.5 14.7656 21.7188 15.1523 20.625H9.84766Z" fill="white"/>
</svg>
