<svg width="65" height="64" viewBox="0 0 65 64" fill="none" xmlns="http://www.w3.org/2000/svg">
<path d="M0 51.5L6.5 44.5L12.5 50L19.5 37.5L29 54L31.5 28L44.5 44.5L65 32V62H0V51.5Z" fill="#F4E9D5"/>
<path d="M16.5795 61.1364C15.9886 61.1364 15.4702 60.9957 15.0241 60.7145C14.581 60.4332 14.2344 60.0398 13.9844 59.5341C13.7372 59.0284 13.6136 58.4375 13.6136 57.7614C13.6136 57.0795 13.7372 56.4844 13.9844 55.9759C14.2344 55.4673 14.581 55.0724 15.0241 54.7912C15.4702 54.5099 15.9886 54.3693 16.5795 54.3693C17.1705 54.3693 17.6875 54.5099 18.1307 54.7912C18.5767 55.0724 18.9233 55.4673 19.1705 55.9759C19.4205 56.4844 19.5455 57.0795 19.5455 57.7614C19.5455 58.4375 19.4205 59.0284 19.1705 59.5341C18.9233 60.0398 18.5767 60.4332 18.1307 60.7145C17.6875 60.9957 17.1705 61.1364 16.5795 61.1364ZM16.5795 60.233C17.0284 60.233 17.3977 60.1179 17.6875 59.8878C17.9773 59.6577 18.1918 59.3551 18.331 58.9801C18.4702 58.6051 18.5398 58.1989 18.5398 57.7614C18.5398 57.3239 18.4702 56.9162 18.331 56.5384C18.1918 56.1605 17.9773 55.8551 17.6875 55.6222C17.3977 55.3892 17.0284 55.2727 16.5795 55.2727C16.1307 55.2727 15.7614 55.3892 15.4716 55.6222C15.1818 55.8551 14.9673 56.1605 14.8281 56.5384C14.6889 56.9162 14.6193 57.3239 14.6193 57.7614C14.6193 58.1989 14.6889 58.6051 14.8281 58.9801C14.9673 59.3551 15.1818 59.6577 15.4716 59.8878C15.7614 60.1179 16.1307 60.233 16.5795 60.233ZM22.0863 57.0625V61H21.0806V54.4545H22.0522V55.4773H22.1374C22.2908 55.1449 22.5238 54.8778 22.8363 54.6761C23.1488 54.4716 23.5522 54.3693 24.0465 54.3693C24.4897 54.3693 24.8775 54.4602 25.2099 54.642C25.5423 54.821 25.8008 55.0938 25.9854 55.4602C26.1701 55.8239 26.2624 56.2841 26.2624 56.8409V61H25.2567V56.9091C25.2567 56.3949 25.1232 55.9943 24.8562 55.7074C24.5891 55.4176 24.2227 55.2727 23.7567 55.2727C23.4357 55.2727 23.1488 55.3423 22.896 55.4815C22.646 55.6207 22.4485 55.8239 22.3036 56.0909C22.1587 56.358 22.0863 56.6818 22.0863 57.0625ZM30.5717 61.1364C30.0263 61.1364 29.5447 60.9986 29.1271 60.723C28.7095 60.4446 28.3828 60.0526 28.147 59.5469C27.9112 59.0384 27.7933 58.4375 27.7933 57.7443C27.7933 57.0568 27.9112 56.4602 28.147 55.9545C28.3828 55.4489 28.7109 55.0582 29.1314 54.7827C29.5518 54.5071 30.0376 54.3693 30.5888 54.3693C31.0149 54.3693 31.3516 54.4403 31.5987 54.5824C31.8487 54.7216 32.0391 54.8807 32.1697 55.0597C32.3033 55.2358 32.407 55.3807 32.4808 55.4943H32.5661V52.2727H33.5717V61H32.6001V59.9943H32.4808C32.407 60.1136 32.3018 60.2642 32.1655 60.446C32.0291 60.625 31.8345 60.7855 31.5817 60.9276C31.3288 61.0668 30.9922 61.1364 30.5717 61.1364ZM30.7081 60.233C31.1115 60.233 31.4524 60.1278 31.7308 59.9176C32.0092 59.7045 32.2209 59.4105 32.3658 59.0355C32.5107 58.6577 32.5831 58.2216 32.5831 57.7273C32.5831 57.2386 32.5121 56.8111 32.37 56.4446C32.228 56.0753 32.0178 55.7884 31.7393 55.5838C31.4609 55.3764 31.1172 55.2727 30.7081 55.2727C30.282 55.2727 29.9268 55.3821 29.6428 55.6009C29.3615 55.8168 29.1499 56.1108 29.0078 56.483C28.8686 56.8523 28.799 57.267 28.799 57.7273C28.799 58.1932 28.87 58.6165 29.0121 58.9972C29.157 59.375 29.37 59.6761 29.6513 59.9006C29.9354 60.1222 30.2876 60.233 30.7081 60.233ZM35.5533 61V54.4545H36.5589V61H35.5533ZM36.0646 53.3636C35.8686 53.3636 35.6996 53.2969 35.5575 53.1634C35.4183 53.0298 35.3487 52.8693 35.3487 52.6818C35.3487 52.4943 35.4183 52.3338 35.5575 52.2003C35.6996 52.0668 35.8686 52 36.0646 52C36.2607 52 36.4283 52.0668 36.5675 52.2003C36.7095 52.3338 36.7805 52.4943 36.7805 52.6818C36.7805 52.8693 36.7095 53.0298 36.5675 53.1634C36.4283 53.2969 36.2607 53.3636 36.0646 53.3636ZM40.8725 61.1364C40.3271 61.1364 39.8455 60.9986 39.4279 60.723C39.0103 60.4446 38.6836 60.0526 38.4478 59.5469C38.212 59.0384 38.0941 58.4375 38.0941 57.7443C38.0941 57.0568 38.212 56.4602 38.4478 55.9545C38.6836 55.4489 39.0117 55.0582 39.4322 54.7827C39.8526 54.5071 40.3384 54.3693 40.8896 54.3693C41.3157 54.3693 41.6523 54.4403 41.8995 54.5824C42.1495 54.7216 42.3398 54.8807 42.4705 55.0597C42.604 55.2358 42.7077 55.3807 42.7816 55.4943H42.8668V52.2727H43.8725V61H42.9009V59.9943H42.7816C42.7077 60.1136 42.6026 60.2642 42.4663 60.446C42.3299 60.625 42.1353 60.7855 41.8825 60.9276C41.6296 61.0668 41.293 61.1364 40.8725 61.1364ZM41.0089 60.233C41.4123 60.233 41.7532 60.1278 42.0316 59.9176C42.31 59.7045 42.5217 59.4105 42.6665 59.0355C42.8114 58.6577 42.8839 58.2216 42.8839 57.7273C42.8839 57.2386 42.8129 56.8111 42.6708 56.4446C42.5288 56.0753 42.3185 55.7884 42.0401 55.5838C41.7617 55.3764 41.418 55.2727 41.0089 55.2727C40.5827 55.2727 40.2276 55.3821 39.9435 55.6009C39.6623 55.8168 39.4506 56.1108 39.3086 56.483C39.1694 56.8523 39.0998 57.267 39.0998 57.7273C39.0998 58.1932 39.1708 58.6165 39.3129 58.9972C39.4577 59.375 39.6708 59.6761 39.9521 59.9006C40.2362 60.1222 40.5884 60.233 41.0089 60.233ZM50.4904 55.9205L49.587 56.1761C49.5302 56.0256 49.4464 55.8793 49.3356 55.7372C49.2276 55.5923 49.0799 55.473 48.8924 55.3793C48.7049 55.2855 48.4648 55.2386 48.1722 55.2386C47.7717 55.2386 47.4379 55.331 47.1708 55.5156C46.9066 55.6974 46.7745 55.929 46.7745 56.2102C46.7745 56.4602 46.8654 56.6577 47.0472 56.8026C47.229 56.9474 47.5131 57.0682 47.8995 57.1648L48.8711 57.4034C49.4563 57.5455 49.8924 57.7628 50.1793 58.0554C50.4663 58.3452 50.6097 58.7187 50.6097 59.1761C50.6097 59.5511 50.5018 59.8864 50.2859 60.1818C50.0728 60.4773 49.7745 60.7102 49.391 60.8807C49.0075 61.0511 48.5614 61.1364 48.0529 61.1364C47.3853 61.1364 46.8327 60.9915 46.3952 60.7017C45.9577 60.4119 45.6808 59.9886 45.5643 59.4318L46.5188 59.1932C46.6097 59.5455 46.7816 59.8097 47.0344 59.9858C47.2901 60.1619 47.6239 60.25 48.0359 60.25C48.5046 60.25 48.8768 60.1506 49.1523 59.9517C49.4308 59.75 49.57 59.5085 49.57 59.2273C49.57 59 49.4904 58.8097 49.3313 58.6562C49.1722 58.5 48.9279 58.3835 48.5984 58.3068L47.5075 58.0511C46.908 57.9091 46.4677 57.6889 46.1864 57.3906C45.908 57.0895 45.7688 56.7131 45.7688 56.2614C45.7688 55.892 45.8725 55.5653 46.0799 55.2812C46.2901 54.9972 46.5756 54.7741 46.9364 54.6122C47.3001 54.4503 47.712 54.3693 48.1722 54.3693C48.82 54.3693 49.3285 54.5114 49.6978 54.7955C50.07 55.0795 50.3342 55.4545 50.4904 55.9205Z" fill="black"/>
<rect x="12" width="27" height="27" rx="13.5" fill="#E9A01D"/>
<path d="M17.5 16.0001L24.6095 14.8105H41L47.6095 16.8105L50 34.5001L53 39.5001V47.0001H12V39.5001L15.5 33.0001V20.0001L17.5 16.0001Z" fill="white"/>
<path d="M15 46.5H50C51.3828 46.5 52.5 45.3828 52.5 44V40.5156C52.5 40.0234 52.3516 39.5391 52.0781 39.125L51.9922 39H13L12.9141 39.125C12.6406 39.5391 12.4922 40.0156 12.4922 40.5156L12.5 44C12.5 45.3828 13.6172 46.5 15 46.5ZM50.3281 36.5L48.1328 33.2031C47.7188 32.5859 47.5 31.8594 47.5 31.125V19C47.5 17.6172 46.3828 16.5 45 16.5H20C18.6172 16.5 17.5 17.6172 17.5 19V31.125C17.5 31.8672 17.2812 32.5859 16.8672 33.2031L14.6719 36.5H50.3281ZM50 49H15C12.2422 49 10 46.7578 10 44V40.5156C10 39.5312 10.2891 38.5625 10.8359 37.7422L14.7891 31.8125C14.9297 31.6094 15 31.3672 15 31.1172V19C15 16.2422 17.2422 14 20 14H45C47.7578 14 50 16.2422 50 19V31.125C50 31.375 50.0703 31.6094 50.2109 31.8203L54.1641 37.7422C54.7109 38.5625 55 39.5312 55 40.5156V44C55 46.7578 52.7578 49 50 49ZM42.5 23.375C41.4609 23.375 40.625 22.5391 40.625 21.5C40.625 20.4609 41.4609 19.625 42.5 19.625C43.5391 19.625 44.375 20.4609 44.375 21.5C44.375 22.5391 43.5391 23.375 42.5 23.375ZM32.5 22.75C30.4297 22.75 28.75 24.4297 28.75 26.5C28.75 28.5703 30.4297 30.25 32.5 30.25C34.5703 30.25 36.25 28.5703 36.25 26.5C36.25 24.4297 34.5703 22.75 32.5 22.75ZM38.75 26.5C38.75 29.9531 35.9531 32.75 32.5 32.75C29.0469 32.75 26.25 29.9531 26.25 26.5C26.25 23.0469 29.0469 20.25 32.5 20.25C35.9531 20.25 38.75 23.0469 38.75 26.5ZM18.75 41.5H46.25C46.9375 41.5 47.5 42.0625 47.5 42.75C47.5 43.4375 46.9375 44 46.25 44H18.75C18.0625 44 17.5 43.4375 17.5 42.75C17.5 42.0625 18.0625 41.5 18.75 41.5Z" fill="black"/>
</svg>
