<svg width="25" height="25" viewBox="0 0 25 25" fill="none" xmlns="http://www.w3.org/2000/svg">
<rect width="25" height="25" rx="12.5" fill="#27B3CB"/>
<path d="M13.5 4.5C13.5 4.225 13.275 4 13 4C12.725 4 12.5 4.225 12.5 4.5V13C12.5 13.275 12.725 13.5 13 13.5C13.275 13.5 13.5 13.275 13.5 13V4.5ZM9.73438 6.80625C9.97813 6.67813 10.0719 6.375 9.94375 6.13125C9.81562 5.8875 9.5125 5.79375 9.26875 5.92188C6.73125 7.2625 5 9.92812 5 13C5 17.4187 8.58125 21 13 21C17.4187 21 21 17.4187 21 13C21 9.92812 19.2687 7.2625 16.7344 5.92188C16.4906 5.79375 16.1875 5.8875 16.0594 6.13125C15.9312 6.375 16.025 6.67813 16.2688 6.80625C18.4875 7.98125 20 10.3156 20 13C20 16.8656 16.8656 20 13 20C9.13438 20 6 16.8656 6 13C6 10.3156 7.5125 7.98125 9.73438 6.80625Z" fill="white"/>
</svg>
