<svg width="50" height="50" viewBox="0 0 50 50" fill="none" xmlns="http://www.w3.org/2000/svg">
<rect width="50" height="50" rx="25" fill="#D9F2EF"/>
<path d="M40.5156 8.53906L41.4609 9.48438C42.4375 10.4609 42.4375 12.0469 41.4609 13.0234L39.375 15.1094L34.8906 10.625L36.9844 8.53906C37.9609 7.5625 39.5469 7.5625 40.5234 8.53906H40.5156ZM19.7656 25.75L33.125 12.3984L37.6094 16.8828L24.25 30.2422C23.9219 30.5703 23.5 30.8047 23.0469 30.9141L17.9219 32.0937L19.1016 26.9688C19.2031 26.5156 19.4375 26.0937 19.7734 25.7656L19.7656 25.75ZM35.2109 6.76562L18 23.9844C17.3359 24.6484 16.875 25.4844 16.6641 26.3984L15.0312 33.4766C14.9375 33.8984 15.0625 34.3359 15.3672 34.6406C15.6719 34.9453 16.1094 35.0703 16.5312 34.9766L23.6094 33.3437C24.5234 33.1328 25.3594 32.6719 26.0234 32.0078L43.2344 14.7891C45.1875 12.8359 45.1875 9.67188 43.2344 7.71875L42.2891 6.76562C40.3359 4.8125 37.1719 4.8125 35.2187 6.76562H35.2109ZM11.25 10C7.79687 10 5 12.7969 5 16.25V38.75C5 42.2031 7.79687 45 11.25 45H33.75C37.2031 45 40 42.2031 40 38.75V28.75C40 28.0625 39.4375 27.5 38.75 27.5C38.0625 27.5 37.5 28.0625 37.5 28.75V38.75C37.5 40.8203 35.8203 42.5 33.75 42.5H11.25C9.17969 42.5 7.5 40.8203 7.5 38.75V16.25C7.5 14.1797 9.17969 12.5 11.25 12.5H21.25C21.9375 12.5 22.5 11.9375 22.5 11.25C22.5 10.5625 21.9375 10 21.25 10H11.25Z" fill="black"/>
</svg>
