<svg width="118" height="100" viewBox="0 0 118 100" fill="none" xmlns="http://www.w3.org/2000/svg">
<path d="M44.0886 91.3419C40.6582 96.5441 34.7563 100 28.0245 100H27.379C22.2887 100 17.4197 97.9779 13.8232 94.3934L0.857612 81.489C-0.285871 80.3493 -0.285871 78.4743 0.857612 77.3346C2.00109 76.1949 3.88231 76.1949 5.02579 77.3346L17.973 90.239C20.4628 92.7206 23.8564 94.1176 27.379 94.1176H28.0245C35.365 94.1176 41.3037 88.1985 41.3037 80.8824V61.7647C41.3037 60.1471 42.6316 58.8235 44.2546 58.8235C45.8776 58.8235 47.2055 60.1471 47.2055 61.7647V64.5037C50.6729 66.5074 54.7119 67.6471 59.0092 67.6471C63.3065 67.6471 67.3456 66.5074 70.8129 64.5037V61.7647C70.8129 60.1471 72.1408 58.8235 73.7638 58.8235C75.3868 58.8235 76.7148 60.1471 76.7148 61.7647V80.8824C76.7148 88.1985 82.6535 94.1176 89.9939 94.1176H90.6394C94.1621 94.1176 97.5372 92.7206 100.027 90.239L112.974 77.3346C114.118 76.1949 115.999 76.1949 117.142 77.3346C118.286 78.4743 118.286 80.3493 117.142 81.489L104.195 94.3934C100.599 97.9779 95.7113 100 90.6394 100H89.9939C83.4097 100 77.6 96.6912 74.1327 91.6544C69.3743 93.2537 64.284 94.1176 59.0092 94.1176C53.7713 94.1176 48.7363 93.2721 44.0333 91.7096C44.0517 91.5809 44.0702 91.4706 44.0886 91.3419ZM46.4309 86.3051C50.3962 87.5735 54.6197 88.2537 59.0092 88.2537C63.3987 88.2537 67.6222 87.5735 71.5875 86.3051C71.0896 84.5956 70.8129 82.7757 70.8129 80.9007V71.1029C67.198 72.6838 63.2143 73.5478 59.0092 73.5478C54.8042 73.5478 50.8204 72.6654 47.2055 71.1029V80.9007C47.2055 82.7757 46.9289 84.5956 46.4309 86.3051ZM106.224 47.0588C106.224 47.4265 106.224 47.7941 106.206 48.1618C104.472 46.7831 102.406 45.9375 100.285 45.6801C99.5475 23.5846 81.344 5.88235 58.9908 5.88235C36.6375 5.88235 18.4525 23.5846 17.7148 45.6801C15.6122 45.9375 13.5466 46.7647 11.7945 48.1618C11.7945 47.7941 11.776 47.4265 11.776 47.0588C11.776 21.0662 32.912 0 58.9908 0C85.0696 0 106.224 21.0662 106.224 47.0588ZM38.3528 39.7059C38.3528 41.3235 37.0249 42.6471 35.4018 42.6471C33.7788 42.6471 32.4509 41.3235 32.4509 39.7059C32.4509 33.2169 37.7441 27.9412 44.2546 27.9412C50.7651 27.9412 56.0583 33.2169 56.0583 39.7059C56.0583 41.3235 54.7304 42.6471 53.1074 42.6471C51.4844 42.6471 50.1565 41.3235 50.1565 39.7059C50.1565 36.4522 47.5191 33.8235 44.2546 33.8235C40.9902 33.8235 38.3528 36.4522 38.3528 39.7059ZM73.7638 33.8235C70.4994 33.8235 67.862 36.4522 67.862 39.7059C67.862 41.3235 66.5341 42.6471 64.9111 42.6471C63.2881 42.6471 61.9601 41.3235 61.9601 39.7059C61.9601 33.2169 67.2534 27.9412 73.7638 27.9412C80.2743 27.9412 85.5675 33.2169 85.5675 39.7059C85.5675 41.3235 84.2396 42.6471 82.6166 42.6471C80.9936 42.6471 79.6657 41.3235 79.6657 39.7059C79.6657 36.4522 77.0283 33.8235 73.7638 33.8235ZM17.0877 55.2757C18.2312 54.136 20.1124 54.136 21.2559 55.2757L34.535 68.511C35.6785 69.6507 35.6785 71.5257 34.535 72.6654C33.3915 73.8051 31.5103 73.8051 30.3668 72.6654L17.0877 59.4301C15.9442 58.2904 15.9442 56.4154 17.0877 55.2757ZM5.284 62.6287C6.42748 61.489 8.30869 61.489 9.45217 62.6287L24.2068 77.3346C25.3503 78.4743 25.3503 80.3493 24.2068 81.489C23.0633 82.6287 21.1821 82.6287 20.0386 81.489L5.284 66.7831C4.14051 65.6434 4.14051 63.7684 5.284 62.6287ZM100.931 55.2757C102.074 56.4154 102.074 58.2904 100.931 59.4301L87.6516 72.6654C86.5081 73.8051 84.6269 73.8051 83.4834 72.6654C82.34 71.5257 82.34 69.6507 83.4834 68.511L96.7626 55.2757C97.9061 54.136 99.7873 54.136 100.931 55.2757ZM112.734 62.6287C113.878 63.7684 113.878 65.6434 112.734 66.7831L97.9798 81.489C96.8364 82.6287 94.9551 82.6287 93.8117 81.489C92.6682 80.3493 92.6682 78.4743 93.8117 77.3346L108.566 62.6287C109.71 61.489 111.591 61.489 112.734 62.6287Z" fill="white"/>
</svg>
