<svg width="129" height="100" viewBox="0 0 129 100" fill="none" xmlns="http://www.w3.org/2000/svg">
<path d="M60.9167 50C60.9167 62.567 57.4453 73.6384 52.1823 81.3393C46.8969 89.0848 40.3573 92.8571 34.0417 92.8571C27.726 92.8571 21.1865 89.1071 15.901 81.3393C14.4005 79.1295 13.0344 76.6518 11.8698 73.9509C13.751 74.6205 15.7891 75 17.9167 75C27.8156 75 35.8333 67.0089 35.8333 57.1429C35.8333 47.2768 27.8156 39.2857 17.9167 39.2857C14.0646 39.2857 10.5036 40.4911 7.59219 42.5446C8.66719 33.0804 11.713 24.7991 15.901 18.6384C21.1865 10.8929 27.726 7.12054 34.0417 7.12054C40.3573 7.12054 46.8969 10.8705 52.1823 18.6384C57.4453 26.3616 60.9167 37.4107 60.9167 49.9777V50ZM64.5 27.6562C58.9234 11.25 47.3672 0 34.0417 0C15.2516 0 0 22.3884 0 50C0 77.6116 15.2516 100 34.0417 100C47.3672 100 58.9234 88.75 64.5 72.3438C70.0766 88.7277 81.6328 100 94.9583 100C113.748 100 129 77.6116 129 50C129 22.3884 113.748 0 94.9583 0C81.6328 0 70.0766 11.25 64.5 27.6562ZM76.8177 81.3616C75.3172 79.1518 73.951 76.6741 72.7865 73.9732C74.6677 74.6429 76.7057 75.0223 78.8333 75.0223C88.7323 75.0223 96.75 67.0313 96.75 57.1652C96.75 47.2991 88.7323 39.308 78.8333 39.308C74.9812 39.308 71.4203 40.5134 68.5089 42.567C69.5839 33.1027 72.6297 24.8214 76.8177 18.6607C82.1031 10.9152 88.6427 7.14286 94.9583 7.14286C101.274 7.14286 107.814 10.8929 113.099 18.6607C118.362 26.3839 121.833 37.433 121.833 50C121.833 62.567 118.362 73.6384 113.099 81.3393C107.814 89.0848 101.274 92.8571 94.9583 92.8571C88.6427 92.8571 82.1031 89.1071 76.8177 81.3393V81.3616ZM7.16667 57.1429C7.16667 51.2277 11.9818 46.4286 17.9167 46.4286C23.8516 46.4286 28.6667 51.2277 28.6667 57.1429C28.6667 63.058 23.8516 67.8571 17.9167 67.8571C11.9818 67.8571 7.16667 63.058 7.16667 57.1429ZM78.8333 46.4286C84.7682 46.4286 89.5833 51.2277 89.5833 57.1429C89.5833 63.058 84.7682 67.8571 78.8333 67.8571C72.8984 67.8571 68.0833 63.058 68.0833 57.1429C68.0833 51.2277 72.8984 46.4286 78.8333 46.4286Z" fill="white"/>
</svg>
