<svg width="50" height="50" viewBox="0 0 50 50" fill="none" xmlns="http://www.w3.org/2000/svg">
<rect width="50" height="50" rx="25" fill="#DFF4F7"/>
<path d="M25 10C14 10 7.08594 20 5 25C7.08594 30 14 40 25 40C36 40 42.9141 30 45 25C42.9141 20 36 10 25 10ZM9.95312 13.7969C13.6328 10.375 18.6875 7.5 25 7.5C31.3125 7.5 36.3672 10.375 40.0469 13.7969C43.7031 17.1953 46.1484 21.25 47.3125 24.0391C47.5703 24.6563 47.5703 25.3437 47.3125 25.9609C46.1484 28.75 43.7031 32.8125 40.0469 36.2031C36.3672 39.6172 31.3125 42.5 25 42.5C18.6875 42.5 13.6328 39.625 9.95312 36.2031C6.29687 32.8047 3.85156 28.75 2.6875 25.9609C2.42969 25.3437 2.42969 24.6563 2.6875 24.0391C3.85156 21.25 6.29687 17.1875 9.95312 13.7969ZM25 32.5C29.1406 32.5 32.5 29.1406 32.5 25C32.5 21.6172 30.2578 18.7578 27.1797 17.8203C27.3906 18.5078 27.5 19.2422 27.5 20C27.5 24.1406 24.1406 27.5 20 27.5C19.2422 27.5 18.5078 27.3906 17.8203 27.1797C18.75 30.2578 21.6172 32.5 25 32.5ZM15.0156 25.6094C15 25.4062 15 25.2031 15 25C15 24.0469 15.1328 23.1328 15.3828 22.2656C15.4062 22.1953 15.4219 22.125 15.4453 22.0547C16.4141 18.8984 18.9062 16.4141 22.0625 15.4375C22.9922 15.1484 23.9844 15 25.0078 15C25.2031 15 25.3984 15.0078 25.5859 15.0156H25.6172C30.8594 15.3281 35.0078 19.6797 35.0078 25C35.0078 30.5234 30.5313 35 25.0078 35C19.6875 35 15.3359 30.8437 15.0234 25.6094H15.0156ZM17.5234 24.3516C18.25 24.7656 19.0937 25.0078 19.9922 25.0078C22.75 25.0078 24.9922 22.7656 24.9922 20.0078C24.9922 19.1094 24.7578 18.2656 24.3359 17.5391C20.7109 17.8516 17.8281 20.7344 17.5156 24.3594L17.5234 24.3516Z" fill="black"/>
</svg>
