<svg width="445" height="305" viewBox="0 0 445 305" fill="none" xmlns="http://www.w3.org/2000/svg">
<path d="M122.785 19.7178C124.874 14.905 130.469 12.6966 135.282 14.7852C140.095 16.874 142.303 22.4693 140.215 27.2823C138.662 30.8612 138.625 33.5649 139.119 35.6778C139.643 37.915 140.938 40.2073 143.1 42.5088C147.358 47.0434 153.886 50.4343 158.981 52.1534C173.662 53.6769 192.656 55.0843 209.657 56.2637C226.844 57.456 242.252 58.433 248.438 59.0469C318.996 66.0488 348.142 117.105 361.13 138.585C372.255 156.985 372.494 178.436 372.499 189.004C373.625 200.001 370.005 209.038 362.597 214.724C355.583 220.106 346.598 221.385 338.838 220.429L336.782 220.176L335.019 219.089C307.643 202.229 268.723 177.773 235.952 157.218C219.553 146.932 204.697 137.624 193.567 130.715C188 127.259 183.39 124.418 179.996 122.361C178.296 121.331 176.931 120.516 175.918 119.926C174.757 119.249 174.402 119.071 174.499 119.116C161.907 113.27 152.144 112.421 144.607 113.982C137.07 115.544 130.709 119.735 125.309 125.851C114.192 138.44 108.227 158.036 106.429 172.66C105.788 177.867 101.047 181.569 95.8399 180.929C90.6326 180.288 86.9308 175.547 87.5713 170.34C89.6061 153.797 96.3916 129.893 111.066 113.274C118.562 104.786 128.357 97.9455 140.752 95.377C153.148 92.8085 167.094 94.7304 182.501 101.884C183.854 102.512 186.661 104.184 189.844 106.113C193.326 108.224 198.005 111.106 203.589 114.572C214.762 121.508 229.655 130.84 246.048 141.122C278.09 161.221 315.872 184.96 343.042 201.715C346.567 201.818 349.369 200.925 351.028 199.651C352.441 198.567 354.239 196.336 353.565 190.61L353.5 190.057V189.5C353.5 178.88 353.127 162.07 344.87 148.415C331.858 126.895 307.004 83.9521 246.562 77.9541C240.748 77.3773 225.906 76.4362 208.343 75.2178C190.976 74.013 171.194 72.5508 156.003 70.9473L155.073 70.8497L154.181 70.5723C147.047 68.355 136.72 63.4706 129.25 55.5166C125.428 51.4474 122.086 46.2822 120.618 40.0059C119.121 33.6055 119.739 26.7384 122.785 19.7178Z" fill="#0C4458"/>
<path d="M145 7.5C145 11.6421 141.642 15 137.5 15C133.358 15 130 11.6421 130 7.5C130 3.35786 133.358 0 137.5 0C141.642 0 145 3.35786 145 7.5Z" fill="#0C4458"/>
<path d="M101 189.5C101 193.642 97.6421 197 93.5 197C89.3579 197 86 193.642 86 189.5C86 185.358 89.3579 182 93.5 182C97.6421 182 101 185.358 101 189.5Z" fill="#0C4458"/>
<path d="M172 211C172 167.922 137.078 133 94 133C50.9218 133 16 167.922 16 211C16 254.078 50.9218 289 94 289V305C42.0852 305 0 262.915 0 211C0 159.085 42.0852 117 94 117C145.915 117 188 159.085 188 211C188 262.915 145.915 305 94 305V289C137.078 289 172 254.078 172 211Z" fill="#0C4458"/>
<path d="M429 211C429 167.922 394.078 133 351 133C307.922 133 273 167.922 273 211C273 254.078 307.922 289 351 289V305C299.085 305 257 262.915 257 211C257 159.085 299.085 117 351 117C402.915 117 445 159.085 445 211C445 262.915 402.915 305 351 305V289C394.078 289 429 254.078 429 211Z" fill="#0C4458"/>
</svg>
