<svg width="93" height="100" viewBox="0 0 93 100" fill="none" xmlns="http://www.w3.org/2000/svg">
<path d="M23.25 0C25.0768 0 26.5714 1.5 26.5714 3.33333V13.3333H66.4286V3.33333C66.4286 1.5 67.9232 0 69.75 0C71.5768 0 73.0714 1.5 73.0714 3.33333V13.3333H79.7143C87.0422 13.3333 93 19.3125 93 26.6667V86.6667C93 94.0208 87.0422 100 79.7143 100H13.2857C5.95781 100 0 94.0208 0 86.6667V26.6667C0 19.3125 5.95781 13.3333 13.2857 13.3333H19.9286V3.33333C19.9286 1.5 21.4232 0 23.25 0ZM79.7143 20H13.2857C9.61138 20 6.64286 22.9792 6.64286 26.6667V33.3333H86.3571V26.6667C86.3571 22.9792 83.3886 20 79.7143 20ZM86.3571 40H66.4286V53.3333H86.3571V40ZM86.3571 60H66.4286V73.3333H86.3571V60ZM86.3571 80H66.4286V93.3333H79.7143C83.3886 93.3333 86.3571 90.3542 86.3571 86.6667V80ZM59.7857 73.3333V60H33.2143V73.3333H59.7857ZM33.2143 80V93.3333H59.7857V80H33.2143ZM26.5714 73.3333V60H6.64286V73.3333H26.5714ZM6.64286 80V86.6667C6.64286 90.3542 9.61138 93.3333 13.2857 93.3333H26.5714V80H6.64286ZM6.64286 53.3333H26.5714V40H6.64286V53.3333ZM33.2143 53.3333H59.7857V40H33.2143V53.3333Z" fill="white"/>
</svg>
