<svg width="28" height="30" viewBox="0 0 28 30" fill="none" xmlns="http://www.w3.org/2000/svg">
<path d="M7 0C7.55 0 8 0.45 8 1V4H20V1C20 0.45 20.45 0 21 0C21.55 0 22 0.45 22 1V4H24C26.2062 4 28 5.79375 28 8V26C28 28.2062 26.2062 30 24 30H4C1.79375 30 0 28.2062 0 26V8C0 5.79375 1.79375 4 4 4H6V1C6 0.45 6.45 0 7 0ZM24 6H4C2.89375 6 2 6.89375 2 8V26C2 27.1063 2.89375 28 4 28H24C25.1063 28 26 27.1063 26 26V8C26 6.89375 25.1063 6 24 6ZM6.5 12C6.5 11.1687 7.16875 10.5 8 10.5C8.83125 10.5 9.5 11.1687 9.5 12C9.5 12.8313 8.83125 13.5 8 13.5C7.16875 13.5 6.5 12.8313 6.5 12ZM12.4375 14.6562C12.85 14.2375 13.4125 14 14 14C14.5875 14 15.15 14.2375 15.5625 14.6562L21.425 20.6125C21.7937 20.9875 22 21.4875 22 22.0125C22 23.1125 21.1063 24.0063 20.0063 24.0063H7.99375C6.89375 24.0063 6 23.1125 6 22.0125C6 21.4875 6.20625 20.9875 6.575 20.6125L12.4375 14.6562ZM14 16C13.95 16 13.9 16.0187 13.8625 16.0562L8.0125 22H19.9937L14.1437 16.0562C14.1062 16.0187 14.0563 16 14.0063 16H14Z" fill="black"/>
</svg>
