<svg width="50" height="50" viewBox="0 0 50 50" fill="none" xmlns="http://www.w3.org/2000/svg">
<rect width="50" height="50" rx="25" fill="#D9F2EF"/>
<path d="M20.0391 7.14063C20.1953 6.60938 20.6875 6.25 21.2344 6.25H28.7656C29.3203 6.25 29.8047 6.60938 29.9609 7.14063L30.8203 10H19.1797L20.0391 7.14063ZM16.5703 10H8.75C8.0625 10 7.5 10.5625 7.5 11.25C7.5 11.9375 8.0625 12.5 8.75 12.5H41.25C41.9375 12.5 42.5 11.9375 42.5 11.25C42.5 10.5625 41.9375 10 41.25 10H33.4297L32.3594 6.42187C31.8828 4.83594 30.4219 3.75 28.7656 3.75H21.2344C19.5781 3.75 18.1172 4.83594 17.6406 6.42187L16.5703 10ZM9.74219 16.25L11.5313 40.3672C11.7266 42.9766 13.8984 45 16.5156 45H33.4766C36.0938 45 38.2656 42.9766 38.4609 40.3672L40.25 16.25H37.7422L35.9687 40.1875C35.875 41.4922 34.7813 42.5 33.4766 42.5H16.5156C15.2031 42.5 14.1172 41.4922 14.0234 40.1875L12.25 16.25H9.74219Z" fill="black"/>
</svg>
