<svg width="67" height="67" viewBox="0 0 67 67" fill="none" xmlns="http://www.w3.org/2000/svg">
<path d="M6.50123 53C2.00161 45 5 48.5 5 48.5L13.5012 54L20.5012 41.5L30.0012 58L32.5012 32L45.5012 48.5L66.0012 36C66.0012 36 66.0012 50 54.0012 60C42.0012 70 22.0012 65 22.0012 65C22.0012 65 11.0008 61 6.50123 53Z" fill="#F4E9D5"/>
<path d="M18.5795 58.1364C17.9886 58.1364 17.4702 57.9957 17.0241 57.7145C16.581 57.4332 16.2344 57.0398 15.9844 56.5341C15.7372 56.0284 15.6136 55.4375 15.6136 54.7614C15.6136 54.0795 15.7372 53.4844 15.9844 52.9759C16.2344 52.4673 16.581 52.0724 17.0241 51.7912C17.4702 51.5099 17.9886 51.3693 18.5795 51.3693C19.1705 51.3693 19.6875 51.5099 20.1307 51.7912C20.5767 52.0724 20.9233 52.4673 21.1705 52.9759C21.4205 53.4844 21.5455 54.0795 21.5455 54.7614C21.5455 55.4375 21.4205 56.0284 21.1705 56.5341C20.9233 57.0398 20.5767 57.4332 20.1307 57.7145C19.6875 57.9957 19.1705 58.1364 18.5795 58.1364ZM18.5795 57.233C19.0284 57.233 19.3977 57.1179 19.6875 56.8878C19.9773 56.6577 20.1918 56.3551 20.331 55.9801C20.4702 55.6051 20.5398 55.1989 20.5398 54.7614C20.5398 54.3239 20.4702 53.9162 20.331 53.5384C20.1918 53.1605 19.9773 52.8551 19.6875 52.6222C19.3977 52.3892 19.0284 52.2727 18.5795 52.2727C18.1307 52.2727 17.7614 52.3892 17.4716 52.6222C17.1818 52.8551 16.9673 53.1605 16.8281 53.5384C16.6889 53.9162 16.6193 54.3239 16.6193 54.7614C16.6193 55.1989 16.6889 55.6051 16.8281 55.9801C16.9673 56.3551 17.1818 56.6577 17.4716 56.8878C17.7614 57.1179 18.1307 57.233 18.5795 57.233ZM24.0863 54.0625V58H23.0806V51.4545H24.0522V52.4773H24.1374C24.2908 52.1449 24.5238 51.8778 24.8363 51.6761C25.1488 51.4716 25.5522 51.3693 26.0465 51.3693C26.4897 51.3693 26.8775 51.4602 27.2099 51.642C27.5423 51.821 27.8008 52.0938 27.9854 52.4602C28.1701 52.8239 28.2624 53.2841 28.2624 53.8409V58H27.2567V53.9091C27.2567 53.3949 27.1232 52.9943 26.8562 52.7074C26.5891 52.4176 26.2227 52.2727 25.7567 52.2727C25.4357 52.2727 25.1488 52.3423 24.896 52.4815C24.646 52.6207 24.4485 52.8239 24.3036 53.0909C24.1587 53.358 24.0863 53.6818 24.0863 54.0625ZM32.5717 58.1364C32.0263 58.1364 31.5447 57.9986 31.1271 57.723C30.7095 57.4446 30.3828 57.0526 30.147 56.5469C29.9112 56.0384 29.7933 55.4375 29.7933 54.7443C29.7933 54.0568 29.9112 53.4602 30.147 52.9545C30.3828 52.4489 30.7109 52.0582 31.1314 51.7827C31.5518 51.5071 32.0376 51.3693 32.5888 51.3693C33.0149 51.3693 33.3516 51.4403 33.5987 51.5824C33.8487 51.7216 34.0391 51.8807 34.1697 52.0597C34.3033 52.2358 34.407 52.3807 34.4808 52.4943H34.5661V49.2727H35.5717V58H34.6001V56.9943H34.4808C34.407 57.1136 34.3018 57.2642 34.1655 57.446C34.0291 57.625 33.8345 57.7855 33.5817 57.9276C33.3288 58.0668 32.9922 58.1364 32.5717 58.1364ZM32.7081 57.233C33.1115 57.233 33.4524 57.1278 33.7308 56.9176C34.0092 56.7045 34.2209 56.4105 34.3658 56.0355C34.5107 55.6577 34.5831 55.2216 34.5831 54.7273C34.5831 54.2386 34.5121 53.8111 34.37 53.4446C34.228 53.0753 34.0178 52.7884 33.7393 52.5838C33.4609 52.3764 33.1172 52.2727 32.7081 52.2727C32.282 52.2727 31.9268 52.3821 31.6428 52.6009C31.3615 52.8168 31.1499 53.1108 31.0078 53.483C30.8686 53.8523 30.799 54.267 30.799 54.7273C30.799 55.1932 30.87 55.6165 31.0121 55.9972C31.157 56.375 31.37 56.6761 31.6513 56.9006C31.9354 57.1222 32.2876 57.233 32.7081 57.233ZM37.5533 58V51.4545H38.5589V58H37.5533ZM38.0646 50.3636C37.8686 50.3636 37.6996 50.2969 37.5575 50.1634C37.4183 50.0298 37.3487 49.8693 37.3487 49.6818C37.3487 49.4943 37.4183 49.3338 37.5575 49.2003C37.6996 49.0668 37.8686 49 38.0646 49C38.2607 49 38.4283 49.0668 38.5675 49.2003C38.7095 49.3338 38.7805 49.4943 38.7805 49.6818C38.7805 49.8693 38.7095 50.0298 38.5675 50.1634C38.4283 50.2969 38.2607 50.3636 38.0646 50.3636ZM42.8725 58.1364C42.3271 58.1364 41.8455 57.9986 41.4279 57.723C41.0103 57.4446 40.6836 57.0526 40.4478 56.5469C40.212 56.0384 40.0941 55.4375 40.0941 54.7443C40.0941 54.0568 40.212 53.4602 40.4478 52.9545C40.6836 52.4489 41.0117 52.0582 41.4322 51.7827C41.8526 51.5071 42.3384 51.3693 42.8896 51.3693C43.3157 51.3693 43.6523 51.4403 43.8995 51.5824C44.1495 51.7216 44.3398 51.8807 44.4705 52.0597C44.604 52.2358 44.7077 52.3807 44.7816 52.4943H44.8668V49.2727H45.8725V58H44.9009V56.9943H44.7816C44.7077 57.1136 44.6026 57.2642 44.4663 57.446C44.3299 57.625 44.1353 57.7855 43.8825 57.9276C43.6296 58.0668 43.293 58.1364 42.8725 58.1364ZM43.0089 57.233C43.4123 57.233 43.7532 57.1278 44.0316 56.9176C44.31 56.7045 44.5217 56.4105 44.6665 56.0355C44.8114 55.6577 44.8839 55.2216 44.8839 54.7273C44.8839 54.2386 44.8129 53.8111 44.6708 53.4446C44.5288 53.0753 44.3185 52.7884 44.0401 52.5838C43.7617 52.3764 43.418 52.2727 43.0089 52.2727C42.5827 52.2727 42.2276 52.3821 41.9435 52.6009C41.6623 52.8168 41.4506 53.1108 41.3086 53.483C41.1694 53.8523 41.0998 54.267 41.0998 54.7273C41.0998 55.1932 41.1708 55.6165 41.3129 55.9972C41.4577 56.375 41.6708 56.6761 41.9521 56.9006C42.2362 57.1222 42.5884 57.233 43.0089 57.233ZM52.4904 52.9205L51.587 53.1761C51.5302 53.0256 51.4464 52.8793 51.3356 52.7372C51.2276 52.5923 51.0799 52.473 50.8924 52.3793C50.7049 52.2855 50.4648 52.2386 50.1722 52.2386C49.7717 52.2386 49.4379 52.331 49.1708 52.5156C48.9066 52.6974 48.7745 52.929 48.7745 53.2102C48.7745 53.4602 48.8654 53.6577 49.0472 53.8026C49.229 53.9474 49.5131 54.0682 49.8995 54.1648L50.8711 54.4034C51.4563 54.5455 51.8924 54.7628 52.1793 55.0554C52.4663 55.3452 52.6097 55.7187 52.6097 56.1761C52.6097 56.5511 52.5018 56.8864 52.2859 57.1818C52.0728 57.4773 51.7745 57.7102 51.391 57.8807C51.0075 58.0511 50.5614 58.1364 50.0529 58.1364C49.3853 58.1364 48.8327 57.9915 48.3952 57.7017C47.9577 57.4119 47.6808 56.9886 47.5643 56.4318L48.5188 56.1932C48.6097 56.5455 48.7816 56.8097 49.0344 56.9858C49.2901 57.1619 49.6239 57.25 50.0359 57.25C50.5046 57.25 50.8768 57.1506 51.1523 56.9517C51.4308 56.75 51.57 56.5085 51.57 56.2273C51.57 56 51.4904 55.8097 51.3313 55.6562C51.1722 55.5 50.9279 55.3835 50.5984 55.3068L49.5075 55.0511C48.908 54.9091 48.4677 54.6889 48.1864 54.3906C47.908 54.0895 47.7688 53.7131 47.7688 53.2614C47.7688 52.892 47.8725 52.5653 48.0799 52.2812C48.2901 51.9972 48.5756 51.7741 48.9364 51.6122C49.3001 51.4503 49.712 51.3693 50.1722 51.3693C50.82 51.3693 51.3285 51.5114 51.6978 51.7955C52.07 52.0795 52.3342 52.4545 52.4904 52.9205Z" fill="black"/>
<rect x="18" y="8" width="32" height="32" rx="16" fill="#E9A01D"/>
<path d="M45.2939 17.0184C45.633 16.6794 45.633 16.1216 45.2939 15.7825C44.9549 15.4434 44.3971 15.4434 44.058 15.7825L35.051 24.7895L27.0273 11.0231C26.6883 10.6841 22.3677 14.1822 22.0286 14.5213C21.6896 14.8603 24.4689 16.6794 24.808 17.0184L33.815 26.0255L24.808 35.0325C24.4689 35.3716 24.4689 35.9294 24.808 36.2684C25.1471 36.6075 25.7049 36.6075 26.044 36.2684L35.051 27.2614L44.058 36.2684C44.3971 36.6075 47.2607 38.7775 46.5273 37.5229C46.8664 37.1839 50.3664 32.862 50.0273 32.5229L36.2869 26.0255L45.2939 17.0184Z" fill="white"/>
<rect x="0.5" y="0.5" width="66" height="66" rx="32.5" stroke="#1F2937"/>
</svg>
