<svg width="101" height="100" viewBox="0 0 101 100" fill="none" xmlns="http://www.w3.org/2000/svg">
<path d="M35.4143 5.88572H11.8048C8.54002 5.88572 5.90239 8.5159 5.90239 11.7714V82.4C5.90239 85.6556 8.54002 88.2857 11.8048 88.2857H39.6936L38.716 94.1715H11.8048C5.29371 94.1715 0 88.8927 0 82.4V11.7714C0 5.27875 5.29371 0 11.8048 0H36.4288C39.5644 0 42.571 1.23232 44.7844 3.43946L67.361 25.9891C69.5744 28.1963 70.8102 31.1943 70.8102 34.3211V46.3684L64.9078 52.2541V35.3327H47.2007C40.6896 35.3327 35.3959 30.0539 35.3959 23.5613V5.90411L35.4143 5.88572ZM62.4731 29.4286L41.3167 8.33197V23.5429C41.3167 26.7984 43.9543 29.4286 47.2191 29.4286H62.4731ZM57.0134 80.9102C56.1465 81.7747 55.5747 82.8966 55.3718 84.0922L53.8039 93.4174L63.1555 91.854C64.3729 91.6516 65.4796 91.0815 66.3465 90.217L85.1788 71.4379L75.8272 62.1127L56.9949 80.8918L57.0134 80.9102ZM79.9958 57.9743L89.3474 67.2995L93.1655 63.4922C95.7478 60.9172 95.7478 56.742 93.1655 54.167C90.5832 51.592 86.3962 51.592 83.8139 54.167L79.9958 57.9743ZM49.5432 83.1357C49.949 80.7263 51.0925 78.4823 52.8448 76.7534L79.6453 50.0286C84.5333 45.1545 92.4461 45.1545 97.3341 50.0286C102.222 54.9027 102.222 62.7932 97.3341 67.6673L70.5151 94.3922C68.7813 96.1211 66.531 97.2798 64.1147 97.6845L50.3732 99.9652C48.5656 100.259 46.9424 98.6409 47.2375 96.8384L49.5432 83.1357Z" fill="white"/>
</svg>
