<svg width="211" height="73" viewBox="0 0 211 73" fill="none" xmlns="http://www.w3.org/2000/svg">
<path d="M14.0449 28.0762H15.3457C18.8262 28.0762 21.4277 28.9141 23.1504 30.5898C24.7324 32.125 25.5234 34.2988 25.5234 37.1113C25.5234 39.6074 24.7031 41.6172 23.0625 43.1406C21.3164 44.7578 18.9082 45.5664 15.8379 45.5664H14.0449V28.0762ZM1.42383 28.0762H10.8809V51.9648H1.42383V28.0762ZM39.1688 52.216C38.4248 52.216 37.9088 51.928 37.6208 51.352C37.3568 50.776 37.2248 50.068 37.2248 49.228C37.2248 48.46 37.2968 47.704 37.4408 46.96C37.5128 46.624 37.5848 46.288 37.6568 45.952C37.7528 45.592 37.8608 45.22 37.9808 44.836C37.5728 45.58 37.1408 46.3 36.6848 46.996C36.2528 47.692 35.8088 48.304 35.3528 48.832C34.5848 49.768 33.7688 50.548 32.9048 51.172C32.0648 51.796 31.2248 52.108 30.3848 52.108C29.7128 52.108 29.1368 51.868 28.6568 51.388C28.2008 50.884 27.9728 50.02 27.9728 48.796C27.9728 47.548 28.1888 46.264 28.6208 44.944C29.0528 43.624 29.6528 42.4 30.4208 41.272C31.2128 40.12 32.1368 39.196 33.1928 38.5C34.2728 37.804 35.4488 37.456 36.7208 37.456C37.1288 37.456 37.5728 37.516 38.0528 37.636C38.5328 37.756 38.9768 37.984 39.3848 38.32C39.7928 38.632 40.0688 39.076 40.2128 39.652C40.2368 39.604 40.2608 39.568 40.2848 39.544C40.3328 39.52 40.3688 39.496 40.3928 39.472C40.7288 38.944 41.1128 38.5 41.5448 38.14C41.9768 37.78 42.4568 37.6 42.9848 37.6C43.2488 37.6 43.6208 37.612 44.1008 37.636C44.5808 37.66 44.9288 37.66 45.1448 37.636C45.0248 37.732 44.8568 37.924 44.6408 38.212C44.4488 38.5 44.2688 38.8 44.1008 39.112C43.9328 39.4 43.8008 39.628 43.7048 39.796C43.0568 41.044 42.4688 42.28 41.9408 43.504C41.4128 44.728 41.0048 45.904 40.7168 47.032C40.6448 47.272 40.5968 47.5 40.5728 47.716C40.5488 47.908 40.5368 48.1 40.5368 48.292C40.5368 48.916 40.7408 49.228 41.1488 49.228C41.5328 49.228 42.0128 48.988 42.5888 48.508C43.4288 47.836 44.1608 46.996 44.7848 45.988C45.4328 44.98 45.9968 44.008 46.4768 43.072C46.5728 42.904 46.6568 42.82 46.7288 42.82C46.8728 42.82 46.9448 43.024 46.9448 43.432C46.9448 43.624 46.9088 43.84 46.8368 44.08C46.7888 44.32 46.7048 44.548 46.5848 44.764C46.2488 45.34 45.8048 46.048 45.2528 46.888C44.7248 47.728 44.1248 48.556 43.4528 49.372C42.7808 50.164 42.0728 50.836 41.3288 51.388C40.6088 51.94 39.8888 52.216 39.1688 52.216ZM32.0048 49.084C32.0768 49.108 32.1848 49.12 32.3288 49.12C32.7848 49.12 33.2768 48.928 33.8048 48.544C34.3328 48.16 34.8608 47.668 35.3888 47.068C35.9168 46.444 36.3848 45.82 36.7928 45.196C37.8488 43.516 38.6288 42.256 39.1328 41.416C39.6368 40.576 39.9248 40.096 39.9968 39.976C39.8768 39.568 39.6608 39.268 39.3488 39.076C39.0608 38.884 38.7128 38.788 38.3048 38.788C37.7768 38.788 37.2128 38.932 36.6128 39.22C36.0368 39.508 35.5448 39.856 35.1368 40.264C34.5128 40.888 33.9128 41.692 33.3368 42.676C32.7848 43.66 32.3288 44.632 31.9688 45.592C31.6328 46.552 31.4648 47.356 31.4648 48.004C31.4648 48.604 31.6448 48.964 32.0048 49.084ZM45.5645 52V51.232L49.4525 47.44L48.6845 48.784V33.664L50.7485 37.072L45.2765 32.032V31.072L54.1565 28.048H55.5005V48.832L54.7805 47.488L58.6685 51.232V52H45.5645ZM52.2365 24.976C50.8925 24.976 49.8045 24.592 48.9725 23.824C48.1405 23.056 47.7245 22.064 47.7245 20.848C47.7245 19.664 48.1405 18.688 48.9725 17.92C49.8045 17.152 50.8925 16.768 52.2365 16.768C53.5485 16.768 54.6205 17.152 55.4525 17.92C56.2845 18.688 56.7005 19.664 56.7005 20.848C56.7005 22.064 56.2845 23.056 55.4525 23.824C54.6205 24.592 53.5485 24.976 52.2365 24.976ZM65.1507 51.9129C64.2217 51.9129 63.3991 51.9226 62.683 51.9419C61.9669 51.9613 61.2411 51.9806 60.5056 52V50.8677L61.5798 50.7806C62.412 50.7032 62.9927 50.5 63.3217 50.171C63.6701 49.8419 63.8443 49.2516 63.8443 48.4V44.5677H66.4572V48.4C66.4572 49.2516 66.6023 49.8516 66.8927 50.2C67.183 50.5484 67.7152 50.7613 68.4894 50.8387L68.9249 50.8677V52C68.3249 51.9806 67.7249 51.9613 67.1249 51.9419C66.5443 51.9226 65.8862 51.9129 65.1507 51.9129ZM63.8443 44.5677V40.7355C63.8443 39.8839 63.6701 39.2839 63.3217 38.9355C62.9927 38.5871 62.3927 38.3742 61.5217 38.2968L60.5056 38.2097V37.0774C60.854 37.0968 61.183 37.1161 61.4927 37.1355C61.8023 37.1355 62.1217 37.1355 62.4507 37.1355C63.2443 37.1355 63.9798 37.1065 64.6572 37.0484C65.3346 36.971 65.9346 36.8645 66.4572 36.729V37.0774V44.5677H63.8443ZM73.512 44.5677V42.0129C73.512 40.7161 73.2604 39.7484 72.7572 39.1097C72.254 38.4516 71.4991 38.1226 70.4927 38.1226C69.4475 38.1226 68.5185 38.4516 67.7056 39.1097C66.8927 39.7677 66.2056 40.7645 65.6443 42.1L65.4701 41.4613C66.0701 39.8355 66.8636 38.6258 67.8507 37.8323C68.8378 37.0387 70.0088 36.6419 71.3636 36.6419C72.8927 36.6419 74.0636 37.1258 74.8765 38.0935C75.7088 39.0419 76.1249 40.4065 76.1249 42.1871V44.5677H73.512ZM74.8185 51.9129C74.1217 51.9129 73.483 51.9226 72.9023 51.9419C72.3411 51.9613 71.7701 51.9806 71.1894 52V50.8677L71.5088 50.8387C72.283 50.7806 72.8056 50.5774 73.0765 50.229C73.3669 49.8613 73.512 49.2516 73.512 48.4V44.5677H76.1249V48.4C76.1249 49.2516 76.2894 49.8419 76.6185 50.171C76.9669 50.5 77.5572 50.7032 78.3894 50.7806L79.4636 50.8677V52C78.7281 51.9806 78.0023 51.9613 77.2862 51.9419C76.5701 51.9226 75.7475 51.9129 74.8185 51.9129ZM90.0234 51.9297C87.9609 51.8594 86.4023 51.3789 85.3477 50.4883C84.293 49.5742 83.5312 48.5547 83.0625 47.4297C82.5938 46.2812 82.3594 45.1211 82.3594 43.9492C82.3594 42.7305 82.582 41.5586 83.0273 40.4336C83.4961 39.2852 84.2578 38.2656 85.3125 37.375C86.3906 36.4609 87.75 35.9922 89.3906 35.9688H102.75C103.406 35.9688 103.957 36.1914 104.402 36.6367C104.871 37.0586 105.105 37.5742 105.105 38.1836C105.105 38.8164 104.871 39.3555 104.402 39.8008C103.957 40.2227 103.406 40.4336 102.75 40.4336H89.6016C89.0859 40.4336 88.6289 40.6094 88.2305 40.9609C87.8555 41.3125 87.5742 41.7695 87.3867 42.332C87.2227 42.8945 87.1406 43.4453 87.1406 43.9844C87.1406 44.5703 87.2227 45.1445 87.3867 45.707C87.5742 46.2695 87.8555 46.7266 88.2305 47.0781C88.6289 47.4062 89.0859 47.582 89.6016 47.6055H102.75C103.406 47.6055 103.957 47.8164 104.402 48.2383C104.871 48.6602 105.105 49.1641 105.105 49.75C105.105 50.3594 104.871 50.875 104.402 51.2969C103.957 51.7188 103.406 51.9297 102.75 51.9297H90.0234ZM104.684 43.8789C104.684 44.3242 104.484 44.7109 104.086 45.0391C103.734 45.3438 103.289 45.4961 102.75 45.4961H91.2539C90.7148 45.4961 90.2578 45.3438 89.8828 45.0391C89.5078 44.7109 89.3203 44.3242 89.3203 43.8789C89.3203 43.457 89.5078 43.082 89.8828 42.7539C90.2578 42.4492 90.7148 42.2969 91.2539 42.2969H102.75C103.289 42.2969 103.746 42.4609 104.121 42.7891C104.496 43.0938 104.684 43.457 104.684 43.8789ZM109.676 51.4023C109.16 51.0742 108.773 50.5703 108.516 49.8906C108.281 49.1875 108.105 48.4609 107.988 47.7109C107.895 46.9375 107.848 46.2227 107.848 45.5664V44.0898C107.848 43.832 107.859 43.3164 107.883 42.543C107.906 41.7461 107.941 40.832 107.988 39.8008C108.035 38.7461 108.082 37.6328 108.129 36.4609C108.176 35.2656 108.223 34.1523 108.27 33.1211C108.316 32.0664 108.352 31.1523 108.375 30.3789C108.422 29.6055 108.445 29.0898 108.445 28.832C108.445 28.4805 108.445 27.8711 108.445 27.0039C108.469 26.1367 108.48 25.2227 108.48 24.2617C108.48 23.2773 108.469 22.3516 108.445 21.4844C108.445 20.6172 108.445 20.0078 108.445 19.6562C108.797 19.3984 109.102 19.2227 109.359 19.1289C109.594 19.0352 109.805 19.0234 109.992 19.0938C110.18 19.1406 110.273 19.3281 110.273 19.6562V48.3438C110.273 48.5078 110.32 48.707 110.414 48.9414C110.531 49.1523 110.672 49.3398 110.836 49.5039C111 49.668 111.188 49.7734 111.398 49.8203C111.633 49.8438 111.867 49.75 112.102 49.5391L116.355 45.918C116.473 46.457 116.461 47.0195 116.32 47.6055C116.18 48.1914 115.945 48.7422 115.617 49.2578C115.312 49.7734 114.926 50.2422 114.457 50.6641C113.988 51.0859 113.484 51.4141 112.945 51.6484C112.406 51.8594 111.855 51.9648 111.293 51.9648C110.73 51.9414 110.191 51.7539 109.676 51.4023Z" fill="black"/>
<rect width="19" height="19" transform="translate(122 29.2205) rotate(-12.1916)" fill="black"/>
<path d="M129.409 41.9428C129.232 41.981 128.996 42.0277 128.7 42.0828C128.41 42.1278 128.118 42.182 127.824 42.2456C127.572 42.3001 127.308 42.3615 127.032 42.4299C126.755 42.4899 126.495 42.5504 126.253 42.6115C126.017 42.6623 125.817 42.7101 125.65 42.7549L125.544 42.263L126.002 42.1243C126.273 42.0308 126.469 41.94 126.59 41.8521C126.719 41.7539 126.79 41.6331 126.803 41.4894C126.822 41.3356 126.804 41.1284 126.747 40.8677L125.499 35.0913C125.443 34.8307 125.375 34.6385 125.296 34.5149C125.223 34.381 125.108 34.2959 124.95 34.2595C124.801 34.2213 124.585 34.2196 124.302 34.2543L123.827 34.3173L123.721 33.8254C123.889 33.7891 124.092 33.7497 124.329 33.7072C124.575 33.663 124.837 33.6151 125.116 33.5635C125.394 33.5036 125.659 33.4463 125.911 33.3918C126.205 33.3283 126.495 33.2614 126.779 33.1912C127.069 33.1108 127.303 33.0515 127.479 33.0134L127.807 32.9425C129.43 32.5919 130.736 32.6883 131.724 33.2315C132.713 33.7748 133.359 34.7485 133.662 36.1526C133.875 37.1364 133.859 38.0199 133.615 38.8032C133.368 39.578 132.915 40.2303 132.255 40.7602C131.594 41.2816 130.737 41.6558 129.686 41.8829L129.409 41.9428ZM129.52 41.4173C130.73 41.1557 131.544 40.6454 131.961 39.8865C132.376 39.1192 132.435 38.046 132.137 36.6671C131.835 35.2714 131.34 34.3223 130.65 33.82C129.969 33.3159 129.019 33.1955 127.8 33.4589L126.728 33.6906L128.216 40.5768C128.281 40.8795 128.356 41.1011 128.439 41.2415C128.53 41.3802 128.658 41.4626 128.822 41.4887C128.993 41.5047 129.225 41.4808 129.52 41.4173ZM139.554 39.9357C138.957 40.0647 138.397 40.0581 137.873 39.916C137.358 39.7721 136.907 39.4778 136.521 39.0333C136.143 38.5869 135.869 37.9728 135.7 37.1908C135.53 36.4005 135.524 35.724 135.684 35.1613C135.851 34.5885 136.143 34.1293 136.562 33.7837C136.98 33.4382 137.483 33.2018 138.072 33.0746C138.669 32.9457 139.225 32.9531 139.74 33.097C140.255 33.241 140.703 33.5403 141.082 33.9951C141.469 34.4396 141.748 35.0571 141.918 35.8474C142.087 36.6294 142.087 37.3026 141.919 37.867C141.759 38.4296 141.474 38.8828 141.064 39.2266C140.654 39.5703 140.151 39.8067 139.554 39.9357ZM139.448 39.4438C139.919 39.3421 140.26 39.0264 140.471 38.4967C140.682 37.9671 140.677 37.1893 140.455 36.1635C140.232 35.1293 139.915 34.4146 139.504 34.0194C139.091 33.6157 138.649 33.4648 138.178 33.5665C137.699 33.6701 137.354 33.9909 137.145 34.5289C136.934 35.0586 136.94 35.8405 137.163 36.8747C137.385 37.9005 137.701 38.611 138.112 39.0063C138.523 39.4015 138.969 39.5474 139.448 39.4438Z" fill="white"/>
<path d="M161.108 50.2129C160.99 50.2354 160.752 50.2687 160.394 50.3127C160.036 50.3568 159.65 50.3817 159.235 50.3877C158.849 50.4126 158.506 50.405 158.205 50.3648C157.904 50.3246 157.738 50.222 157.706 50.057C157.684 49.9391 157.724 49.8336 157.829 49.7403C157.961 49.6661 158.075 49.62 158.169 49.602C158.64 49.5118 159.125 49.4924 159.624 49.5437C160.122 49.595 160.631 49.571 161.149 49.4719C162.776 49.1609 164.356 48.5412 165.889 47.6127C167.417 46.6608 168.806 45.4911 170.056 44.1037C171.329 42.7118 172.396 41.2005 173.257 39.5697C174.137 37.9109 174.754 36.2169 175.108 34.4878C175.457 32.735 175.474 31.0336 175.158 29.3835C174.811 27.5684 174.137 26.2188 173.138 25.3349C172.138 24.4509 170.923 23.9135 169.494 23.7225C168.088 23.527 166.572 23.5848 164.946 23.8958C164.238 24.031 163.392 24.2663 162.405 24.6015C161.442 24.9323 160.448 25.3546 159.422 25.8683C158.42 26.3776 157.494 26.9699 156.646 27.6453C155.798 28.3206 155.147 29.0682 154.693 29.8881C154.258 30.6799 154.13 31.5472 154.31 32.4901C154.414 33.0323 154.632 33.406 154.965 33.6112C155.321 33.8119 155.746 33.9261 156.24 33.9539C156.291 33.9684 156.378 33.9762 156.501 33.9772C156.619 33.9547 156.687 33.9906 156.705 34.0849C156.599 34.3005 156.382 34.4399 156.051 34.503C155.321 34.6427 154.738 34.5342 154.303 34.1775C153.84 33.8017 153.541 33.2603 153.406 32.5531C153.199 31.4687 153.323 30.4554 153.778 29.5132C154.257 28.5664 154.939 27.7273 155.826 26.9958C156.731 26.2362 157.727 25.5692 158.815 24.9948C159.926 24.4158 161.034 23.9474 162.138 23.5896C163.238 23.2083 164.201 22.9387 165.026 22.781C166.935 22.4158 168.677 22.327 170.253 22.5145C171.847 22.6739 173.191 23.2478 174.284 24.2361C175.377 25.2244 176.128 26.7911 176.539 28.9363C176.881 30.7278 176.854 32.5656 176.457 34.4498C176.055 36.3103 175.36 38.1048 174.371 39.8333C173.382 41.5618 172.184 43.1591 170.779 44.6252C169.392 46.0632 167.864 47.2717 166.194 48.2508C164.548 49.2253 162.852 49.8793 161.108 50.2129ZM164.744 46.0356C164.013 46.1754 163.414 46.1067 162.945 45.8298C162.501 45.5483 162.142 45.1405 161.868 44.6063C161.619 44.0676 161.438 43.5035 161.325 42.9142C161.113 41.8063 160.974 40.5013 160.906 38.9992C160.834 37.4735 160.864 35.904 160.996 34.2906C161.122 32.6537 161.352 31.1071 161.684 29.6507C162.04 28.1899 162.526 26.9607 163.142 25.9634C163.275 25.7668 163.46 25.646 163.696 25.6009C163.861 25.5694 164.032 25.5732 164.211 25.6123C164.413 25.647 164.544 25.7564 164.604 25.9405L164.538 26.1729C164.407 26.6378 164.224 27.0881 163.99 27.5239C163.751 27.936 163.554 28.3768 163.4 28.8462C162.653 30.9439 162.151 33.1778 161.896 35.548C161.636 37.8945 161.715 40.164 162.135 42.3562C162.261 43.0163 162.446 43.6651 162.69 44.3026C162.958 44.9356 163.482 45.3118 164.262 45.4314C164.384 45.4325 164.511 45.4571 164.643 45.5052C164.798 45.5489 164.889 45.6415 164.916 45.7829C164.943 45.9244 164.886 46.0086 164.744 46.0356ZM181.303 30.6642C181.138 30.6957 180.978 30.6897 180.823 30.646C180.664 30.5788 180.568 30.4626 180.537 30.2976C180.5 30.109 180.529 29.8104 180.622 29.4017C180.71 28.9694 180.846 28.5281 181.028 28.0778C181.211 27.6274 181.417 27.2338 181.646 26.8968C181.898 26.5554 182.142 26.3621 182.378 26.317C182.566 26.2809 182.683 26.3808 182.728 26.6165C182.782 26.8994 182.672 27.1526 182.397 27.3762C182.231 27.5302 182.109 27.7857 182.03 28.1427C181.976 28.4953 181.935 28.8574 181.908 29.229C181.905 29.5961 181.889 29.8925 181.858 30.1182C181.842 30.4146 181.657 30.5966 181.303 30.6642ZM183.185 44.3421C182.643 44.4457 182.2 44.2984 181.855 43.9001C181.505 43.4782 181.239 42.9794 181.055 42.4036C180.867 41.8042 180.737 41.316 180.665 40.9388C180.62 40.7031 180.56 40.2625 180.486 39.617C180.435 38.967 180.382 38.244 180.328 37.4481C180.292 36.6241 180.273 35.8214 180.27 35.04C180.291 34.2541 180.36 33.5934 180.478 33.0578C180.595 32.5222 180.772 32.2318 181.008 32.1868C181.196 32.1507 181.373 32.1781 181.537 32.2689C181.701 32.3597 181.801 32.4994 181.837 32.688C181.891 32.9709 181.894 33.4345 181.846 34.079C181.798 34.7234 181.731 35.4571 181.644 36.2801C181.58 37.0986 181.531 37.9266 181.496 38.7641C181.479 39.5736 181.532 40.2966 181.654 40.933C181.685 41.098 181.751 41.3787 181.851 41.7749C181.975 42.1666 182.13 42.528 182.315 42.8591C182.496 43.1666 182.716 43.2955 182.976 43.2459C183.329 43.1783 183.669 42.8446 183.994 42.2449C184.319 41.6452 184.622 40.9276 184.902 40.0921C185.201 39.2285 185.467 38.3835 185.7 37.5571C185.928 36.7071 186.123 35.998 186.283 35.4298C186.443 34.8616 186.57 34.5685 186.664 34.5505C186.782 34.5279 186.862 34.5615 186.903 34.6513C186.964 34.713 187.004 34.791 187.022 34.8853C187.08 35.1918 187.045 35.7116 186.917 36.4448C186.783 37.1544 186.581 37.9505 186.31 38.8331C186.035 39.6922 185.719 40.5344 185.364 41.3598C185.004 42.1617 184.634 42.8434 184.252 43.405C183.871 43.9666 183.515 44.279 183.185 44.3421ZM196.271 42.0965C195.823 42.1822 195.405 42.0421 195.018 41.6764C194.649 41.2826 194.319 40.7715 194.028 40.143C193.76 39.51 193.524 38.8467 193.318 38.153C193.131 37.4312 192.983 36.7875 192.875 36.2217C192.826 35.9624 192.783 35.7385 192.747 35.5499C192.706 35.3378 192.684 35.1587 192.681 35.0128C192.554 35.5012 192.379 36.1822 192.155 37.0558C191.955 37.9249 191.695 38.8053 191.377 39.6969C191.059 40.5885 190.683 41.3691 190.249 42.0385C189.815 42.7079 189.315 43.0967 188.749 43.2049C188.018 43.3446 187.469 43.1564 187.102 42.6402C186.753 42.096 186.523 41.5292 186.41 40.9399C186.257 40.1384 186.199 39.1965 186.236 38.1142C186.297 37.0274 186.449 36.0944 186.691 35.3151C186.778 35.0052 186.918 34.5874 187.111 34.0619C187.304 33.5363 187.532 33.004 187.795 32.465C188.078 31.8978 188.376 31.4132 188.69 31.011C189.028 30.6044 189.373 30.3672 189.727 30.2996C190.245 30.2005 190.635 30.3214 190.896 30.6625C191.176 30.9756 191.358 31.356 191.444 31.8039C191.503 32.1104 191.355 32.2974 191.001 32.365C190.836 32.3966 190.724 32.3203 190.665 32.1362C190.624 31.9241 190.562 31.7282 190.479 31.5486C190.396 31.3691 190.213 31.3063 189.93 31.3604C189.505 31.4415 189.138 31.7562 188.827 32.3042C188.517 32.8523 188.257 33.5373 188.047 34.3593C187.857 35.1532 187.709 35.9756 187.603 36.8267C187.497 37.6777 187.438 38.4586 187.428 39.1693C187.417 39.8799 187.445 40.412 187.513 40.7656C187.563 41.0249 187.663 41.36 187.815 41.7708C187.986 42.1535 188.26 42.3088 188.637 42.2367C188.85 42.1961 189.072 42.0191 189.306 41.7057C189.562 41.3878 189.796 41.0132 190.007 40.582C190.237 40.1227 190.436 39.6937 190.604 39.295C190.772 38.8963 190.887 38.6055 190.95 38.4224C191.362 36.9997 191.653 35.7101 191.823 34.5536C191.988 33.3736 192.09 32.2424 192.127 31.1601C192.165 30.0779 192.181 28.9507 192.177 27.7786C192.173 26.6065 192.195 25.3194 192.245 23.9171C192.252 23.696 192.278 23.3243 192.325 22.8023C192.395 22.2757 192.51 21.7895 192.669 21.3437C192.847 20.8698 193.09 20.6035 193.396 20.5449C193.632 20.4999 193.796 20.5907 193.888 20.8174C194.004 21.0396 194.078 21.2332 194.109 21.3982C194.181 21.7754 194.205 22.3451 194.179 23.1074C194.173 23.8417 194.143 24.6416 194.088 25.5072C194.034 26.3728 193.959 27.1936 193.863 27.9694C193.786 28.7171 193.713 29.2931 193.643 29.6973C193.594 29.9511 193.538 30.2307 193.474 30.5361C193.41 30.8415 193.38 31.1284 193.382 31.3967C193.357 32.159 193.406 32.9926 193.53 33.8973C193.678 34.7976 193.826 35.6367 193.975 36.4146C194.011 36.6032 194.081 36.9686 194.185 37.5108C194.307 38.0249 194.463 38.5816 194.65 39.181C194.857 39.7523 195.072 40.2365 195.295 40.6338C195.541 41.0266 195.805 41.1959 196.088 41.1418C196.418 41.0787 196.694 40.7939 196.915 40.2874C197.154 39.7529 197.359 39.1639 197.53 38.5205C197.719 37.849 197.889 37.2668 198.039 36.7738C198.184 36.2573 198.328 35.9855 198.469 35.9584C198.705 35.9134 198.85 36.0323 198.904 36.3151C198.945 36.5273 198.877 36.9433 198.703 37.5631C198.547 38.1549 198.316 38.7978 198.009 39.4918C197.721 40.1578 197.419 40.753 197.104 41.2775C196.808 41.7739 196.53 42.0469 196.271 42.0965ZM200.936 41.4245C200.511 41.5056 200.259 41.3341 200.177 40.9097C200.101 40.509 200.157 40.0341 200.345 39.4849C200.552 38.9077 200.818 38.3193 201.143 37.7195C201.464 37.0962 201.794 36.5201 202.132 35.991C202.495 35.4575 202.79 35.0223 203.019 34.6853C202.657 34.5834 202.218 34.5208 201.7 34.4976C201.202 34.4463 200.689 34.3855 200.163 34.3152C199.655 34.2167 199.209 34.0576 198.825 33.8379C198.46 33.59 198.23 33.2186 198.136 32.7235C198.036 32.2049 198.112 31.5795 198.363 30.8474C198.638 30.1107 199.023 29.3773 199.519 28.6472C200.01 27.8936 200.535 27.2555 201.095 26.7331C201.651 26.1871 202.176 25.8667 202.671 25.7721C202.977 25.7135 203.288 25.7397 203.602 25.8506C203.936 25.9334 204.136 26.1516 204.204 26.5052C204.222 26.5995 204.223 26.7337 204.207 26.9077C204.192 27.0817 204.125 27.18 204.007 27.2026C203.842 27.2341 203.685 27.1786 203.536 27.0362C203.405 26.8656 203.269 26.7939 203.128 26.8209C202.727 26.8975 202.275 27.1549 201.773 27.5931C201.294 28.0268 200.844 28.5526 200.425 29.1703C200.001 29.7645 199.664 30.3665 199.414 30.9763C199.188 31.5816 199.115 32.0964 199.196 32.5207C199.25 32.8036 199.463 33.0195 199.833 33.1686C200.204 33.3176 200.627 33.4201 201.102 33.4759C201.6 33.5272 202.087 33.5807 202.562 33.6365C203.032 33.6687 203.387 33.7353 203.626 33.8361C203.722 33.6957 203.886 33.4688 204.119 33.1554C204.352 32.8421 204.617 32.4983 204.912 32.1243C205.207 31.7502 205.475 31.4301 205.718 31.1638C205.983 30.8931 206.175 30.7464 206.293 30.7239C206.387 30.7058 206.444 30.744 206.462 30.8383C206.484 30.9561 206.405 31.179 206.223 31.507C206.06 31.8069 205.843 32.1416 205.572 32.5111C205.324 32.8762 205.086 33.2272 204.857 33.5641C204.624 33.8775 204.459 34.1044 204.364 34.2448C204.644 34.5579 204.822 34.9147 204.899 35.3155C204.975 35.7162 204.893 36.2451 204.652 36.902C204.407 37.5354 204.067 38.1867 203.633 38.8562C203.223 39.5211 202.771 40.0962 202.277 40.5816C201.783 41.0669 201.336 41.3479 200.936 41.4245ZM201.934 39.3643C202.147 39.3237 202.372 39.1585 202.609 38.8687C202.871 38.5744 203.109 38.2233 203.324 37.8157C203.54 37.408 203.71 37.0211 203.835 36.655C203.98 36.2609 204.032 35.9577 203.991 35.7455C203.946 35.5098 203.865 35.342 203.748 35.2422C203.634 35.4107 203.453 35.6774 203.205 36.0425C202.981 36.403 202.74 36.8034 202.482 37.2437C202.243 37.6559 202.037 38.0495 201.865 38.4246C201.711 38.7716 201.65 39.0277 201.682 39.1927C201.709 39.3341 201.793 39.3913 201.934 39.3643Z" fill="#1F2937"/>
</svg>
