<svg width="113" height="100" viewBox="0 0 113 100" fill="none" xmlns="http://www.w3.org/2000/svg">
<path d="M65.9167 10.9375C65.9167 8.33984 68.0158 6.25 70.625 6.25C73.2342 6.25 75.3333 8.33984 75.3333 10.9375C75.3333 13.5352 73.2342 15.625 70.625 15.625C68.0158 15.625 65.9167 13.5352 65.9167 10.9375ZM81.6111 10.9375C81.6111 4.90234 76.687 0 70.625 0C64.563 0 59.6389 4.90234 59.6389 10.9375C59.6389 16.9727 64.563 21.875 70.625 21.875C76.687 21.875 81.6111 16.9727 81.6111 10.9375ZM54.4597 30.625C55.6172 29.707 57.2847 29.707 58.4226 30.6641L73.3127 43.0273C73.8816 43.4961 74.5878 43.75 75.3137 43.75H87.8693C89.5957 43.75 91.0082 42.3438 91.0082 40.625C91.0082 38.9062 89.5957 37.5 87.8693 37.5H76.4516L62.4247 25.8594C58.9915 23.0078 54.0085 22.9492 50.5165 25.7422L40.2759 33.8867C34.1158 38.7891 34.9986 48.3789 41.963 52.0703L53.3611 58.125V81.25C53.3611 82.9688 54.7736 84.375 56.5 84.375C58.2264 84.375 59.6389 82.9688 59.6389 81.25V56.25C59.6389 55.0977 58.9915 54.043 57.9714 53.4961L44.945 46.582C41.963 45 41.5707 40.8984 44.2191 38.7891L54.4597 30.6445V30.625ZM21.9722 62.5C30.6434 62.5 37.6667 69.4922 37.6667 78.125C37.6667 86.7578 30.6434 93.75 21.9722 93.75C13.301 93.75 6.27778 86.7578 6.27778 78.125C6.27778 69.4922 13.301 62.5 21.9722 62.5ZM21.9722 100C34.1158 100 43.9444 90.2148 43.9444 78.125C43.9444 66.0352 34.1158 56.25 21.9722 56.25C9.82865 56.25 0 66.0352 0 78.125C0 90.2148 9.82865 100 21.9722 100ZM75.3333 78.125C75.3333 69.4922 82.3566 62.5 91.0278 62.5C99.699 62.5 106.722 69.4922 106.722 78.125C106.722 86.7578 99.699 93.75 91.0278 93.75C82.3566 93.75 75.3333 86.7578 75.3333 78.125ZM113 78.125C113 66.0352 103.171 56.25 91.0278 56.25C78.8842 56.25 69.0556 66.0352 69.0556 78.125C69.0556 90.2148 78.8842 100 91.0278 100C103.171 100 113 90.2148 113 78.125Z" fill="white"/>
</svg>
