<svg width="75" height="100" viewBox="0 0 75 100" fill="none" xmlns="http://www.w3.org/2000/svg">
<path d="M12.5 6.25H37.5V25C37.5 31.8945 43.1055 37.5 50 37.5H68.75V87.5C68.75 90.957 65.957 93.75 62.5 93.75H12.5C9.04297 93.75 6.25 90.957 6.25 87.5V12.5C6.25 9.04297 9.04297 6.25 12.5 6.25ZM43.75 8.84766L66.1523 31.25H50C46.543 31.25 43.75 28.457 43.75 25V8.84766ZM12.5 0C5.60547 0 0 5.60547 0 12.5V87.5C0 94.3945 5.60547 100 12.5 100H62.5C69.3945 100 75 94.3945 75 87.5V36.4258C75 33.1055 73.6914 29.9219 71.3477 27.5781L47.4023 3.65234C45.0586 1.30859 41.8945 0 38.5742 0H12.5ZM21.875 50C20.1562 50 18.75 51.4062 18.75 53.125C18.75 54.8438 20.1562 56.25 21.875 56.25H53.125C54.8438 56.25 56.25 54.8438 56.25 53.125C56.25 51.4062 54.8438 50 53.125 50H21.875ZM21.875 68.75C20.1562 68.75 18.75 70.1562 18.75 71.875C18.75 73.5938 20.1562 75 21.875 75H53.125C54.8438 75 56.25 73.5938 56.25 71.875C56.25 70.1562 54.8438 68.75 53.125 68.75H21.875Z" fill="white"/>
</svg>
